<svg xmlns="http://www.w3.org/2000/svg" xmlns:xlink="http://www.w3.org/1999/xlink" version="1.1" id="Layer_1" x="0px" y="0px" width="100%" height="100%" viewBox="0 0 266.895 266.895" enable-background="new 0 0 266.895 266.895" xml:space="preserve">
  <path id="White_2_" fill="#FFFFFF" d="M252.164 0H14.73C6.594 0 0 6.594 0 14.731v237.434c0 8.135 6.594 14.73 14.73 14.73h127.826V163.539h-34.781v-40.28h34.781V93.554c0-34.473 21.055-53.244 51.807-53.244 14.73 0 27.391 1.097 31.08 1.587v36.026l-21.328 0.01c-16.725 0-19.963 7.947-19.963 19.609v25.717h39.887l-5.193 40.28h-34.693v103.355h68.012c8.135 0 14.73-6.596 14.73-14.73V14.731C266.895 6.594 260.299 0 252.164 0z"/>
</svg>
