<?xml version="1.0" encoding="utf-8"?>
<!-- Generator: Adobe Illustrator 17.0.0, SVG Export Plug-In . SVG Version: 6.00 Build 0)  -->
<!DOCTYPE svg PUBLIC "-//W3C//DTD SVG 1.1//EN" "http://www.w3.org/Graphics/SVG/1.1/DTD/svg11.dtd">
<svg version="1.1" id="Layer_1" xmlns="http://www.w3.org/2000/svg" xmlns:xlink="http://www.w3.org/1999/xlink" x="0px" y="0px"
	 width="266.893px" height="266.895px" viewBox="0 0 266.893 266.895" enable-background="new 0 0 266.893 266.895"
	 xml:space="preserve">
<path id="Blue_1_" fill="#3C5A9A" d="M252.163,0H14.731C6.593,0,0,6.594,0,14.731v237.434c0,8.135,6.593,14.73,14.731,14.73h127.826
	V163.539h-34.781v-40.28h34.781V93.554c0-34.473,21.054-53.244,51.806-53.244c14.73,0,27.391,1.097,31.081,1.587v36.026l-21.33,0.01
	c-16.724,0-19.962,7.947-19.962,19.609v25.717h39.887l-5.194,40.28h-34.693v103.355h68.012c8.134,0,14.73-6.596,14.73-14.73V14.731
	C266.893,6.594,260.297,0,252.163,0z"/>
</svg>
