<?xml version="1.0" encoding="utf-8"?>
<!-- Generator: Adobe Illustrator 17.0.0, SVG Export Plug-In . SVG Version: 6.00 Build 0)  -->
<!DOCTYPE svg PUBLIC "-//W3C//DTD SVG 1.1//EN" "http://www.w3.org/Graphics/SVG/1.1/DTD/svg11.dtd">
<svg version="1.1" id="Layer_1" xmlns="http://www.w3.org/2000/svg" xmlns:xlink="http://www.w3.org/1999/xlink" x="0px" y="0px"
	 width="131.24px" height="57.36px" viewBox="0 0 131.24 57.36" enable-background="new 0 0 131.24 57.36" xml:space="preserve">
<g>
	<path fill="#CB2128" d="M52.249,20.22c2.469,0,4.838-2.048,5.25-4.575c0.488-2.46-1.187-4.507-3.654-4.507
		c-2.468,0-4.837,2.047-5.255,4.507C48.108,18.171,49.713,20.22,52.249,20.22z"/>
	<path fill="#CB2128" d="M85.949,44.426c-0.562,0.488-1.188,0.789-1.879,0.789c-1.734,0-2.467-0.871-2.467-2.742
		c0-2.945,2.909-10.318,2.909-13.664c0-4.469-2.405-7.058-7.337-7.058c-3.107,0-6.329,1.999-7.694,3.754
		c0,0,0.414-1.436,0.556-1.988c0.152-0.584-0.162-1.157-0.932-1.157c-1.102,0-3.773,0-4.82,0c-1.026,0-1.31,0.546-1.46,1.147
		c-0.06,0.241-1.796,7.036-3.464,13.56c-1.141,4.467-3.912,8.199-6.874,8.199c-1.524,0-2.202-0.951-2.202-2.57
		c0-1.397,0.907-4.847,1.988-9.129c1.316-5.211,2.477-9.502,2.601-10.004c0.162-0.643-0.126-1.203-0.958-1.203
		c-1.042,0-3.747,0-4.85,0c-0.878,0-1.192,0.459-1.377,1.097c0,0-1.365,5.148-2.811,10.878c-1.049,4.159-2.208,8.396-2.208,10.385
		c0,3.552,1.601,6.229,6.001,6.229c3.396,0,6.084-1.717,8.137-3.902c-0.302,1.184-0.494,1.933-0.514,2.009
		c-0.177,0.677,0.038,1.274,0.838,1.274c1.102,0,3.876,0,4.962,0c0.864,0,1.196-0.346,1.376-1.096
		c0.174-0.717,3.88-15.241,3.88-15.241c0.979-3.901,3.402-6.485,6.811-6.485c1.617,0,3.016,1.066,2.854,3.139
		c-0.18,2.28-2.939,10.469-2.939,14.063c0,2.721,1.012,6.24,6.152,6.24c3.504,0,6.084-1.674,7.96-3.834L85.949,44.426z"/>
	<path fill="#CB2128" d="M23.633,0C7.921,0,0,11.224,0,20.582c0,5.667,2.153,10.707,6.771,12.587
		c0.757,0.308,1.436,0.011,1.656-0.825c0.152-0.578,0.514-2.037,0.675-2.643c0.221-0.827,0.135-1.116-0.476-1.837
		c-1.332-1.565-2.183-3.592-2.183-6.461c0-8.326,6.253-15.78,16.282-15.78c8.88,0,13.759,5.406,13.759,12.626
		c0,9.5-4.22,17.517-10.484,17.517c-3.46,0-6.049-2.85-5.219-6.346c0.994-4.174,2.919-8.679,2.919-11.691
		c0-2.697-1.453-4.946-4.46-4.946c-3.537,0-6.377,3.644-6.377,8.528c0,3.109,1.055,5.213,1.055,5.213s-3.619,15.278-4.253,17.953
		c-1.264,5.329-0.19,11.861-0.099,12.521c0.053,0.391,0.558,0.483,0.786,0.188c0.326-0.424,4.538-5.604,5.97-10.781
		c0.405-1.466,2.326-9.057,2.326-9.057c1.149,2.184,4.507,4.107,8.078,4.107c10.63,0,17.843-9.656,17.843-22.581
		C44.569,9.101,36.26,0,23.633,0z"/>
	<path fill="#CB2128" d="M105.779,20.214c2.457,0,4.816-2.039,5.227-4.555c0.485-2.449-1.182-4.488-3.638-4.488
		c-2.458,0-4.816,2.039-5.232,4.488C101.656,18.175,103.253,20.214,105.779,20.214z"/>
	<path fill="#CB2128" d="M127.135,42.189c-1.178,1.705-2.742,2.983-4.373,2.983c-1.516,0-2.362-0.949-2.362-2.559
		c0-1.392,0.984-4.792,2.061-9.054c0.361-1.427,0.909-3.602,1.516-6.013c2.743,0,4.946,0,5.051,0c0.752,0,1.193-0.305,1.364-1.005
		c0.242-1.009,0.685-2.769,0.811-3.25c0.163-0.631-0.202-1.109-0.907-1.109c-0.166,0-4.967,0-4.967,0s2.287-9.089,2.341-9.323
		c0.22-0.924-0.556-1.458-1.368-1.288c0,0-3.839,0.749-4.551,0.897c-0.716,0.144-1.27,0.536-1.529,1.564
		c-0.033,0.132-2.033,8.15-2.033,8.15s-3.897,0-3.988,0c-0.751,0-1.193,0.306-1.361,1.005c-0.242,1.008-0.688,2.769-0.811,3.251
		c-0.166,0.631,0.203,1.108,0.906,1.108c0.143,0,1.782,0,3.91,0c-0.027,0.112-1.412,5.36-2.532,10.059
		c-0.527,2.26-3.729,7.549-6.622,7.549c-1.516,0-3.865-0.952-3.865-2.562c0-1.393,0.902-4.826,1.979-9.089
		c1.31-5.188,2.467-9.461,2.59-9.96c0.161-0.64-0.126-1.197-0.953-1.197c-1.037,0-3.732,0-4.828,0c-0.875,0-1.188,0.457-1.371,1.092
		c0,0-1.359,5.125-2.798,10.83c-1.045,4.141-2.199,8.357-2.199,10.339c0,3.536,4.8,6.202,9.181,6.202c3.488,0,5.936-1.61,7.803-3.76
		c0.684,2.281,2.495,3.816,5.818,3.816c5.521,0,8.85-3.264,10.806-6.541L127.135,42.189z"/>
</g>
</svg>
